<?xml version="1.0" standalone="no"?><!DOCTYPE svg PUBLIC "-//W3C//DTD SVG 1.1//EN" "http://www.w3.org/Graphics/SVG/1.1/DTD/svg11.dtd"><svg t="1717048940110" class="icon" viewBox="0 0 1024 1024" version="1.1" xmlns="http://www.w3.org/2000/svg" p-id="4341" xmlns:xlink="http://www.w3.org/1999/xlink" width="128" height="128"><path d="M512 512m-510.272 0a510.272 510.272 0 1 0 1020.544 0 510.272 510.272 0 1 0-1020.544 0Z" fill="#FFED9E" p-id="4342"></path><path d="M782.464 494.464l-0.064-3.136a81.664 81.664 0 0 0-81.536-77.504H506.24a81.664 81.664 0 0 0-81.536 77.504l-0.064 2.048-0.064 2.112v194.56a74.752 74.752 0 0 0 1.408 14.848l0.256 1.344a33.024 33.024 0 0 0 0.96 4.032v0.064l0.96 3.264 0.512 1.6 0.512 1.536 0.576 1.408a5.888 5.888 0 0 0 0.576 1.472 81.728 81.728 0 0 0 76.096 52.032h194.56c39.04 0 71.744-27.52 79.744-64.192l0.256-1.344a46.08 46.08 0 0 0 0.768-4.096l0.256-1.92a83.584 83.584 0 0 0 0.64-10.24v-194.56c-0.192-0.192-0.192-0.512-0.192-0.832zM499.008 382.336h100.416v-48.384c0-45.056-36.544-81.6-81.664-81.6H323.264c-45.056 0-81.664 36.544-81.728 81.6v194.56c0 44.992 36.608 81.6 81.6 81.6h70.592V487.552c0-58.112 47.168-105.216 105.28-105.216z" fill="#F7A500" p-id="4343"></path><path d="M280.768 530.56v-1.344l0.064 1.664-0.064-0.32z" fill="#FF9100" p-id="4344"></path></svg>